<svg xmlns="http://www.w3.org/2000/svg" width="900" height="680" viewBox="0 0 900 680">
  <rect width="900" height="680" fill="#f7f9fb"/>
  <rect x="40" y="40" width="820" height="600" rx="16" fill="#ffffff" stroke="#d9e1ea" stroke-width="2"/>
  <rect x="75" y="80" width="320" height="34" rx="8" fill="#0ca956"/>
  <text x="95" y="103" font-family="Arial, sans-serif" font-size="18" font-weight="700" fill="#ffffff">IEEE IConSCEPT 2023</text>
  <rect x="120" y="210" width="260" height="260" rx="12" fill="#f5f8fd" stroke="#d3deeb" stroke-width="3"/>
  <circle cx="250" cy="340" r="80" fill="none" stroke="#2e6cff" stroke-width="6"/>
  <path d="M250 260 L280 320 L340 340 L280 360 L250 420 L220 360 L160 340 L220 320 Z" fill="none" stroke="#17b26a" stroke-width="5"/>
  <rect x="430" y="220" width="330" height="250" rx="12" fill="#f8fbff" stroke="#d3deeb" stroke-width="3"/>
  <rect x="470" y="360" width="50" height="90" fill="#2e6cff"/>
  <rect x="535" y="330" width="50" height="120" fill="#17b26a"/>
  <rect x="600" y="295" width="50" height="155" fill="#ff6f61"/>
  <rect x="665" y="250" width="50" height="200" fill="#f7b500"/>
  <text x="90" y="615" font-family="Arial, sans-serif" font-size="22" fill="#4b5b6e">IoT smart valve control and safety monitoring</text>
</svg>
