<svg xmlns="http://www.w3.org/2000/svg" width="900" height="680" viewBox="0 0 900 680">
  <rect width="900" height="680" fill="#f8fafc"/>
  <rect x="40" y="40" width="820" height="600" rx="16" fill="#ffffff" stroke="#d9e1ea" stroke-width="2"/>
  <rect x="75" y="80" width="230" height="34" rx="8" fill="#0ca956"/>
  <text x="95" y="103" font-family="Arial, sans-serif" font-size="18" font-weight="700" fill="#ffffff">Springer 2021</text>
  <rect x="105" y="190" width="310" height="350" rx="14" fill="#f5f8fd" stroke="#d3deeb" stroke-width="3"/>
  <rect x="140" y="230" width="240" height="30" rx="6" fill="#dfe8f5"/>
  <rect x="140" y="280" width="200" height="20" rx="6" fill="#e9f0fa"/>
  <rect x="140" y="315" width="230" height="20" rx="6" fill="#e9f0fa"/>
  <rect x="140" y="350" width="210" height="20" rx="6" fill="#e9f0fa"/>
  <rect x="140" y="385" width="160" height="20" rx="6" fill="#e9f0fa"/>
  <rect x="470" y="220" width="300" height="250" rx="12" fill="#f8fbff" stroke="#d3deeb" stroke-width="3"/>
  <circle cx="620" cy="300" r="62" fill="#e9f3ff" stroke="#2e6cff" stroke-width="4"/>
  <path d="M620 250 C680 280 680 340 620 350 C560 340 560 280 620 250" fill="#17b26a" opacity="0.75"/>
  <text x="90" y="615" font-family="Arial, sans-serif" font-size="22" fill="#4b5b6e">COVID-19 safeguard mobile application architecture</text>
</svg>
